<svg width="465" height="440" xmlns="http://www.w3.org/2000/svg" data-name="Layer 1">
 <title>elements</title>

 <g>
  <title>Layer 1</title>
  <ellipse cx="440.95209" cy="1267.77618" rx="20" ry="7.5" fill="#2f2e41" id="svg_34"/>
  <ellipse cx="494.24887" cy="1291.27618" rx="20" ry="7.5" fill="#2f2e41" id="svg_35"/>
  <ellipse cx="545.0851" cy="1734.05885" rx="12.40027" ry="39.5" fill="#2f2e41" id="svg_39"/>
  <ellipse cx="734.12549" cy="1955.26576" rx="12.40027" ry="39.5" fill="#2f2e41" id="svg_40"/>
  <g id="svg_45">
   <rect transform="rotate(-180 1061.4 1161.06)" x="1912.79313" y="1924.00081" width="24" height="43" fill="#2f2e41" id="svg_32"/>
   <rect transform="rotate(-180 965.396 1161.06)" x="1768.79313" y="1924.00081" width="24" height="43" fill="#2f2e41" id="svg_33"/>
   <path d="m461.80456,188.92509c0,81.82751 -48.64516,110.39862 -108.652,110.39862s-108.652,-28.57111 -108.652,-110.39862s108.652,-185.925 108.652,-185.925s108.652,104.09751 108.652,185.925z" fill="#f2f2f2" id="svg_27"/>
   <polygon points="349.19427490234375,286.8070373535156 350.30731201171875,218.32400512695312 396.6173095703125,133.60202026367188 350.48126220703125,207.58200073242188 350.9822998046875,176.78903198242188 382.89825439453125,115.49298095703125 351.1142578125,168.64004516601562 351.1142578125,168.64102172851562 352.0142822265625,113.25900268554688 386.1912841796875,64.45999145507812 352.1552734375,104.54998779296875 352.71728515625,3 349.185302734375,137.43399047851562 349.47528076171875,131.88803100585938 314.727294921875,78.70001220703125 348.91827392578125,142.53402709960938 345.6802978515625,204.38601684570312 345.58428955078125,202.74404907226562 305.5252685546875,146.77203369140625 345.4622802734375,208.54403686523438 345.05731201171875,216.27902221679688 344.98529052734375,216.39505004882812 345.018310546875,217.02999877929688 336.80426025390625,373.9530334472656 347.779296875,373.9530334472656 349.09527587890625,292.8999938964844 388.935302734375,231.27902221679688 349.19427490234375,286.8070373535156 " fill="#3f3d56" id="svg_28"/>
   <ellipse cx="341.47189" cy="373.94983" rx="37.77886" ry="11.19374" fill="#3f3d56" id="svg_29"/>
   <ellipse cx="172" cy="411.62801" rx="170" ry="23.12721" fill="#3f3d56" id="svg_30"/>
   <circle cx="174" cy="293.12801" r="79" fill="#2f2e41" id="svg_31"/>
   <circle cx="172" cy="273.12801" r="27" fill="#fff" id="svg_36"/>
   <circle cx="162.80456" cy="261.62801" r="9" fill="#3f3d56" id="svg_37"/>
   <path d="m250.63267,219.66027c6.37889,-28.56758 -14.01185,-57.43391 -45.544,-64.47476s-62.2651,10.41 -68.644,38.97759s14.51862,39.1038 46.05076,46.14465s61.75835,7.9201 68.13724,-20.64748z" fill="#f50057" id="svg_38"/>
   <rect x="40.80456" y="218.62801" width="36" height="36" fill="#ff6584" id="svg_41"/>
   <rect x="2.80456" y="154.62801" width="36" height="36" fill="none" stroke="#3f3d56" stroke-miterlimit="10" stroke-width="2" id="svg_42"/>
   <path d="m189.80456,327.628a18,18 0 0 1 -36,0c0,-9.94113 8.05887,-12 18,-12s18,2.05887 18,12z" fill="#fff" id="svg_43"/>
  </g>
 </g>
</svg>