<svg width="465" height="320" xmlns="http://www.w3.org/2000/svg" data-name="Layer 1">

 <g>
  <title>Layer 1</title>
  <g id="svg_45">
   <path id="svg_1" fill="#e6e6e6" d="m90,138.12955a3.00328,3.00328 0 0 0 -3,3l0,124a3.00328,3.00328 0 0 0 3,3l124,0a3.00328,3.00328 0 0 0 3,-3l0,-124a3.00328,3.00328 0 0 0 -3,-3l-124,0z"/>
   <path id="svg_2" fill="#2f2e41" d="m112.31,288.08955a42.83061,42.83061 0 0 1 -4.43,19.04c-0.33,0.68 -0.68,1.34 -1.05,2l-75.17,0c-0.37,-0.66 -0.72,-1.32 -1.05,-2a43.07125,43.07125 0 1 1 81.7,-19.04z"/>
   <circle id="svg_3" fill="#fff" r="14.71922" cy="277.18184" cx="70.33625"/>
   <circle id="svg_4" fill="#3f3d56" r="4.90642" cy="277.18184" cx="70.33625"/>
   <path id="svg_5" fill="#f50057" d="m27.46915,248.03355c-3.47748,-15.5738 7.63867,-31.31043 24.82861,-35.14881s33.94421,5.67511 37.42169,21.2489s-7.91491,21.31769 -25.10486,25.156s-33.6679,4.3178 -37.14544,-11.25609z"/>
   <path id="svg_6" fill="#3f3d56" d="m131,175.12955l-124,0a5.0018,5.0018 0 0 0 -5,5l0,124a5.0018,5.0018 0 0 0 5,5l124,0a5.0018,5.0018 0 0 0 5,-5l0,-124a5.0018,5.0018 0 0 0 -5,-5zm3,129a3.00882,3.00882 0 0 1 -3,3l-124,0a3.00882,3.00882 0 0 1 -3,-3l0,-124a3.00879,3.00879 0 0 1 3,-3l124,0a3.00879,3.00879 0 0 1 3,3l0,124z"/>
   <ellipse id="svg_17" fill="#e6e6e6" ry="5.33899" rx="70" cy="310.12957" cx="383.94081"/>
   <path fill="#e6e6e6" d="m303.24959,67.842l-234.838,0c-4.578,0 -8.288,-2.643 -8.293,-5.9l0,-51.042c0.005,-3.257 3.715,-5.9 8.293,-5.9l234.838,0c4.578,0 8.288,2.643 8.293,5.9l0,51.041c-0.004,3.25704 -3.715,5.897 -8.293,5.901z" data-name="a69b3c31-ebec-4776-89b9-9c88b713759e-1002" id="a57870e8-de60-471f-b9b7-92106e879aa4-201"/>
   <circle id="svg_18" fill="#f50057" r="19" cy="61.12957" cx="157.94081"/>
   <path fill="#3f3d56" d="m198.98073,47.50505a3.625,3.625 0 0 0 0,7.249l135.878,0a3.625,3.625 0 0 0 0.119,-7.249q-0.05952,-0.001 -0.119,0l-135.878,0z" data-name="f4993879-8a0d-4ea4-907e-e549be7081a0-1005" id="ae707616-7859-44c4-85e2-23c8eff2faa5-202"/>
   <path fill="#3f3d56" d="m198.98073,67.50505a3.625,3.625 0 0 0 0,7.249l135.878,0a3.625,3.625 0 0 0 0.119,-7.249q-0.05952,-0.001 -0.119,0l-135.878,0z" data-name="a649136c-96b9-48c7-9686-75389104c34a-1006" id="fa5c53e0-b4e1-47b9-8303-3d466a67aea7-203"/>
   <circle id="svg_19" fill="#2f2e41" r="43.06733" cy="249.06015" cx="385.91377"/>
   <rect id="svg_20" fill="#2f2e41" height="23.44168" width="13.08374" y="282.85982" x="392.45564"/>
   <rect id="svg_21" fill="#2f2e41" height="23.44168" width="13.08374" y="282.85982" x="366.28816"/>
   <ellipse id="svg_22" fill="#2f2e41" ry="4.08868" rx="10.90314" cy="306.57415" cx="394.6363"/>
   <ellipse id="svg_23" fill="#2f2e41" ry="4.08868" rx="10.90314" cy="306.02892" cx="368.46876"/>
   <circle id="svg_24" fill="#fff" r="14.71922" cy="238.15703" cx="384.82344"/>
   <circle id="svg_25" fill="#3f3d56" r="4.90643" cy="238.15703" cx="384.82344"/>
   <path id="svg_26" fill="#e6e6e6" d="m427.69057,209.00877c3.47747,-15.57379 -7.63868,-31.31042 -24.82862,-35.1488s-33.94421,5.67511 -37.42169,21.2489s7.91492,21.31769 25.10486,25.156s33.66791,4.31776 37.14545,-11.2561z"/>
   <circle id="svg_27" fill="#2f2e41" r="42.01233" cy="117.77211" cx="398.90889"/>
   <rect transform="rotate(-0.26634 -491.773 -227.987)" id="svg_28" fill="#2f2e41" height="22.86749" width="12.76324" y="154.88039" x="403.67357"/>
   <rect transform="rotate(-0.26634 -491.773 -228.106)" id="svg_29" fill="#2f2e41" height="22.86749" width="12.76324" y="154.88034" x="378.14662"/>
   <ellipse transform="rotate(-30.2663 -576.627 263.832)" id="svg_30" fill="#2f2e41" ry="3.98853" rx="10.63605" cy="672.09056" cx="297.08018"/>
   <ellipse transform="rotate(-30.2663 -573.161 276.414)" id="svg_31" fill="#2f2e41" ry="3.98853" rx="10.63605" cy="684.55617" cx="325.54008"/>
   <circle id="svg_32" fill="#fff" r="14.35864" cy="107.14113" cx="397.79585"/>
   <circle id="svg_33" fill="#3f3d56" r="4.78621" cy="101.04824" cx="392.87733"/>
   <path id="svg_34" fill="#f50057" d="m439.48024,78.51283c3.32159,-15.20788 -7.59338,-30.50848 -24.37952,-34.1748s-33.08661,5.68994 -36.40826,20.89783s7.81763,20.7593 24.6037,24.42569s32.86242,4.05917 36.18408,-11.14872z"/>
   <ellipse id="svg_35" fill="#2f2e41" transform="matrix(0.3892 -0.92115 0.92115 0.3892 -36.3135 856.771)" ry="21.00614" rx="6.59448" cy="64.59161" cx="852.63671"/>
   <ellipse transform="rotate(-67.0952 -256.249 847.272)" id="svg_36" fill="#2f2e41" ry="21.00616" rx="6.59448" cy="1210.77602" cx="674.57039"/>
   <path id="svg_37" fill="#fff" d="m407.399,136.08006a9.57243,9.57243 0 1 1 -19.14435,0.13843l-0.00018,-0.03064l-0.00012,-0.0188c-0.0246,-5.28662 4.256,-6.40149 9.54266,-6.42608s9.57739,1.05041 9.60199,6.33709z"/>
   <path fill="#3f3d56" d="m364.34407,92.79463l-234.838,0c-4.578,0 -8.288,-2.643 -8.293,-5.9l0,-51.042c0.005,-3.257 3.715,-5.9 8.293,-5.9l234.838,0c4.578,0 8.288,2.643 8.293,5.9l0,51.041c-0.004,3.25705 -3.715,5.89704 -8.293,5.901zm-234.838,-60.484c-2.747,0 -4.973,1.586 -4.976,3.54l0,51.041c0,1.954 2.229,3.538 4.976,3.54l234.838,0c2.747,0 4.973,-1.586 4.976,-3.54l0,-51.039c0,-1.954 -2.229,-3.538 -4.976,-3.54l-234.838,-0.002z" data-name="acccf4df-3a09-4c7b-a8c8-af469fe66e6d-1009" id="e8766300-bfe9-404a-93f8-d64e2f4a896b-204"/>
  </g>
 </g>
</svg>